# xmcd
#
# Track frame offsets:
#	150
#	12482
#	31035
#	52937
#	69430
#	75995
#	93715
#	104327
#	117842
#	129195
#	150665
#	169137
#	194405
#
# Disc length: 2712 seconds
#
# Revision: 0
# Processed by: cddbd v1.4PL0 Copyright (c) Steve Scherf et al.
# Submitted via: EasyCDDAExtractor 4.6.0.1
#
DISCID=9a0a960d
DTITLE=Kevin Coyne - Dynamite Daze
DYEAR=1978
DGENRE=Blues
TTITLE0=Dynamite Daze
TTITLE1=Brothers of Mine
TTITLE2=Lunatic
TTITLE3=Are we Dreaming
TTITLE4=(Take me back to) Dear old Blighty
TTITLE5=I Really Live Round Here (False Friends)
TTITLE6=I Am
TTITLE7=Amsterdam
TTITLE8=I Only Want To See You Smile
TTITLE9=Juliet and Mark
TTITLE10=Woman, Woman, Woman
TTITLE11=Cry
TTITLE12=Dance of Bourgeoisie
EXTD=
EXTT0=
EXTT1=
EXTT2=
EXTT3=
EXTT4=
EXTT5=
EXTT6=
EXTT7=
EXTT8=
EXTT9=
EXTT10=
EXTT11=
EXTT12=
PLAYORDER=
